<svg width="64" height="64" viewBox="0 0 64 64" fill="none" xmlns="http://www.w3.org/2000/svg">
  <!-- Body -->
  <path d="M4 16C4 16 12 56 32 56C52 56 60 16 60 16H4Z" fill="#EC4899"/>
  
  <!-- Trim/Waistband -->
  <path d="M4 16H60" stroke="white" stroke-width="4" stroke-linecap="round"/>
  
  <!-- Leg openings trims (styled) -->
  <path d="M4 16C4 16 12 48 24 52" stroke="white" stroke-width="3" stroke-linecap="round"/>
  <path d="M60 16C60 16 52 48 40 52" stroke="white" stroke-width="3" stroke-linecap="round"/>
  
  <!-- Bow -->
  <path d="M32 16L28 20M32 16L36 20" stroke="#DC2626" stroke-width="3" stroke-linecap="round"/>
  <circle cx="32" cy="16" r="3" fill="#DC2626"/>
  <path d="M26 14C24 12 24 18 29 16M38 14C40 12 40 18 35 16" stroke="#DC2626" stroke-width="3" stroke-linecap="round" fill="none"/>
</svg>
