<svg xmlns="http://www.w3.org/2000/svg" viewBox="0 0 100 120" width="100%" height="100%">
  <defs>
    <linearGradient id="g3" x1="0%" y1="0%" x2="0%" y2="100%">
      <stop offset="0%" stop-color="#ff75a0"/>
      <stop offset="100%" stop-color="#c7004c"/>
    </linearGradient>
  </defs>
  <!-- Hook -->
  <path d="M 50,40 C 50,25 70,20 70,10 C 70,-5 35,-5 35,8" fill="none" stroke="url(#g3)" stroke-width="8" stroke-linecap="round"/>
  <!-- Solid Heart -->
  <path d="M 50,45 C 50,45 80,25 90,45 C 100,65 80,85 50,110 C 20,85 0,65 10,45 C 20,25 50,45 50,45 Z" fill="url(#g3)"/>
  <!-- Sparkle 1 -->
  <path d="M 85,15 Q 90,15 90,10 Q 90,15 95,15 Q 90,15 90,20 Q 90,15 85,15 Z" fill="#ff75a0"/>
  <!-- Sparkle 2 -->
  <path d="M 15,35 Q 20,35 20,30 Q 20,35 25,35 Q 20,35 20,40 Q 20,35 15,35 Z" fill="#ff75a0"/>
</svg>
